<svg xmlns="http://www.w3.org/2000/svg" xmlns:xlink="http://www.w3.org/1999/xlink" preserveAspectRatio="xMidYMid" width="43" height="40" viewBox="0 0 43 40">
  <defs>
    <style>
      .cls-1 {
        fill: #050d2c;
        opacity: 0.9;
      }

      .cls-1, .cls-2, .cls-3 {
        fill-rule: evenodd;
      }

      .cls-2, .cls-3 {
        fill: #01d2ff;
      }

      .cls-2 {
        filter: url(#outer-glow-1);
      }
    </style>

    <filter id="outer-glow-1" filterUnits="userSpaceOnUse">
      <feGaussianBlur stdDeviation="0.667" in="SourceAlpha"/>
      <feComposite/>
      <feComposite/>
      <feComposite result="outerGlowBlur"/>
      <feFlood flood-color="#01d2ff" flood-opacity="0.7"/>
      <feComposite operator="in" in2="outerGlowBlur"/>
      <feBlend in2="SourceGraphic" result="outerGlow"/>
      <feComposite in="SourceGraphic" result="shadowed"/>
    </filter>
  </defs>
  <g>
    <path d="M21.005,3.845 C30.259,3.845 37.761,11.342 37.761,20.590 C37.761,29.837 30.259,37.334 21.005,37.334 C11.751,37.334 4.249,29.837 4.249,20.590 C4.249,11.342 11.751,3.845 21.005,3.845 Z" class="cls-1"/>
    <path d="M33.655,39.125 C33.461,39.125 33.271,39.032 33.155,38.859 C32.971,38.584 33.045,38.211 33.321,38.027 C38.421,34.626 41.466,28.946 41.466,22.833 C41.466,12.765 33.264,4.575 23.182,4.575 C13.099,4.575 4.896,12.765 4.896,22.833 C4.896,28.946 7.942,34.626 13.043,38.027 C13.318,38.211 13.393,38.584 13.208,38.859 C13.024,39.134 12.651,39.208 12.376,39.024 C6.941,35.401 3.695,29.348 3.695,22.833 C3.695,12.104 12.437,3.375 23.182,3.375 C33.926,3.375 42.668,12.104 42.668,22.833 C42.668,29.348 39.423,35.401 33.988,39.024 C33.885,39.093 33.770,39.125 33.655,39.125 Z" class="cls-2"/>
    <path d="M30.764,29.771 C30.130,30.413 22.907,32.572 21.278,32.802 C21.278,32.808 21.278,32.817 21.278,32.823 C21.248,32.823 21.210,32.821 21.166,32.817 C21.122,32.821 21.084,32.823 21.053,32.823 C21.053,32.817 21.053,32.808 21.053,32.802 C19.425,32.572 12.201,30.413 11.568,29.771 C10.898,29.094 11.903,20.955 12.237,19.938 C12.674,18.610 18.599,17.224 18.599,17.224 C18.838,19.394 19.245,21.903 20.062,23.174 L20.633,20.054 C20.633,19.615 20.871,19.259 21.165,19.259 C21.460,19.259 21.698,19.615 21.698,20.054 L22.269,23.175 C23.086,21.904 23.494,19.394 23.732,17.224 C23.732,17.224 29.658,18.610 30.095,19.938 C30.429,20.955 31.434,29.094 30.764,29.771 ZM21.165,16.207 C18.761,16.207 16.812,14.233 16.812,11.798 C16.812,9.364 18.761,7.390 21.165,7.390 C23.570,7.390 25.519,9.364 25.519,11.798 C25.519,14.233 23.570,16.207 21.165,16.207 Z" class="cls-3"/>
  </g>
</svg>
