<svg xmlns="http://www.w3.org/2000/svg" xmlns:xlink="http://www.w3.org/1999/xlink" preserveAspectRatio="xMidYMid" width="43" height="39" viewBox="0 0 43 39">
  <defs>
    <style>
      .cls-1 {
        fill: #050d2c;
        opacity: 0.9;
      }

      .cls-2, .cls-3 {
        fill: #c830e8;
        fill-rule: evenodd;
      }

      .cls-2 {
        filter: url(#outer-glow-1);
      }
    </style>

    <filter id="outer-glow-1" filterUnits="userSpaceOnUse">
      <feGaussianBlur stdDeviation="0.667" in="SourceAlpha"/>
      <feComposite/>
      <feComposite/>
      <feComposite result="outerGlowBlur"/>
      <feFlood flood-color="#c830e8" flood-opacity="0.7"/>
      <feComposite operator="in" in2="outerGlowBlur"/>
      <feBlend in2="SourceGraphic" result="outerGlow"/>
      <feComposite in="SourceGraphic" result="shadowed"/>
    </filter>
  </defs>
  <g>
    <circle cx="20.86" cy="20.906" r="16.766" class="cls-1"/>
    <path d="M33.413,38.807 C33.221,38.807 33.033,38.714 32.918,38.544 C32.735,38.270 32.809,37.901 33.082,37.719 C38.140,34.348 41.160,28.720 41.160,22.661 C41.160,12.685 33.026,4.568 23.027,4.568 C13.028,4.568 4.893,12.685 4.893,22.661 C4.893,28.720 7.913,34.349 12.971,37.719 C13.245,37.901 13.318,38.270 13.136,38.544 C12.953,38.816 12.583,38.889 12.310,38.707 C6.920,35.116 3.701,29.118 3.701,22.661 C3.701,12.029 12.371,3.379 23.027,3.379 C33.683,3.379 42.352,12.029 42.352,22.661 C42.352,29.118 39.134,35.116 33.744,38.707 C33.642,38.775 33.527,38.807 33.413,38.807 Z" class="cls-2"/>
    <path d="M31.219,19.105 L21.303,9.553 C21.133,9.389 20.914,9.308 20.694,9.308 C20.475,9.308 20.255,9.389 20.086,9.553 L10.170,19.105 C9.912,19.353 9.830,19.734 9.964,20.067 C10.098,20.398 10.420,20.616 10.778,20.616 L12.622,20.616 L12.622,30.338 C12.622,30.823 13.015,31.216 13.499,31.216 L20.694,31.216 L27.888,31.216 C28.373,31.216 28.766,30.823 28.766,30.338 L28.766,20.616 L30.611,20.616 C30.968,20.616 31.291,20.398 31.424,20.067 C31.558,19.734 31.477,19.353 31.219,19.105 ZM19.946,29.209 L15.852,29.200 L15.862,25.091 L19.955,25.101 L19.946,29.209 ZM19.957,24.573 L17.226,24.567 L17.233,21.834 L19.963,21.841 L19.957,24.573 ZM20.478,20.143 L23.838,20.136 L23.845,23.497 L20.486,23.505 L20.478,20.143 ZM20.499,29.209 L20.487,24.154 L25.524,24.142 L25.535,29.197 L20.499,29.209 Z" class="cls-3"/>
  </g>
</svg>
