	<svg xmlns="http://www.w3.org/2000/svg" xmlns:xlink="http://www.w3.org/1999/xlink" preserveAspectRatio="xMidYMid" width="133" height="145" viewBox="0 0 133 145">
		<defs>
			<style>
				.cls-1 {
				  fill: #050d2c;
				  opacity: 0.9;
				}
		    
				.cls-2, .cls-3 {
				  fill: #c830e8;
				}
		    
				.cls-2 {
				  filter: url(#outer-glow-1);
				}
		    
				.cls-2, .cls-3, .cls-4 {
				  fill-rule: evenodd;
				}
		    
				.cls-4 {
				  fill: #f4be06;
				}
			</style>
	   
			<filter id="outer-glow-1" filterUnits="userSpaceOnUse">
				<feGaussianBlur stdDeviation="2.333" in="SourceAlpha"/>
				<feComposite/>
				<feComposite/>
				<feComposite result="outerGlowBlur"/>
				<feFlood flood-color="#c830e8" flood-opacity="0.7"/>
				<feComposite operator="in" in2="outerGlowBlur"/>
				<feBlend in2="SourceGraphic" result="outerGlow"/>
				<feComposite in="SourceGraphic" result="shadowed"/>
			</filter>
		</defs>
		<g>
			<ellipse cx="66" cy="66" rx="52.031" ry="52" class="cls-1"/>
			<path d="M104.750,122.511 C104.153,122.511 103.568,122.222 103.212,121.692 C102.645,120.844 102.874,119.697 103.722,119.132 C119.428,108.664 128.806,91.185 128.806,72.370 C128.806,41.388 103.548,16.182 72.500,16.182 C41.453,16.182 16.194,41.388 16.194,72.370 C16.194,91.185 25.572,108.666 41.279,119.132 C42.127,119.697 42.356,120.844 41.789,121.692 C41.222,122.537 40.073,122.766 39.225,122.201 C22.488,111.048 12.495,92.420 12.495,72.370 C12.495,39.352 39.414,12.489 72.500,12.489 C105.587,12.489 132.505,39.352 132.505,72.370 C132.505,92.420 122.513,111.048 105.777,122.201 C105.461,122.411 105.105,122.511 104.750,122.511 Z" class="cls-2"/>
			<path d="M98.180,60.407 L67.390,30.744 C66.863,30.234 66.182,29.982 65.501,29.982 C64.819,29.982 64.138,30.234 63.612,30.744 L32.822,60.407 C32.021,61.178 31.767,62.360 32.183,63.393 C32.599,64.423 33.598,65.098 34.711,65.098 L40.435,65.098 L40.435,95.290 C40.435,96.796 41.656,98.018 43.161,98.018 L65.501,98.018 L87.838,98.018 C89.343,98.018 90.564,96.796 90.564,95.290 L90.564,65.098 L96.291,65.098 C97.401,65.098 98.403,64.423 98.817,63.393 C99.233,62.360 98.980,61.178 98.180,60.407 ZM63.176,91.783 L50.467,91.755 L50.496,78.996 L63.206,79.025 L63.176,91.783 ZM63.210,77.388 L54.733,77.369 L54.752,68.882 L63.230,68.901 L63.210,77.388 ZM64.830,63.630 L75.261,63.607 L75.283,74.046 L64.854,74.071 L64.830,63.630 ZM64.893,91.783 L64.857,76.085 L80.496,76.050 L80.532,91.746 L64.893,91.783 Z" class="cls-3"/>
			<path d="M65.500,98.001 L73.574,112.771 L89.997,115.953 L78.565,128.263 L80.640,144.999 L65.500,137.837 L50.360,144.999 L52.435,128.263 L41.003,115.953 L57.425,112.771 L65.500,98.001 " class="cls-4"/>
		</g>
	</svg>
