<svg xmlns="http://www.w3.org/2000/svg" xmlns:xlink="http://www.w3.org/1999/xlink" preserveAspectRatio="xMidYMid" width="68.688" height="68.656" viewBox="0 0 68.688 68.656">
  <defs>
    <style>
      .cls-1 {
        fill: #060e2e;
        stroke: #fff;
        stroke-linejoin: round;
        stroke-width: 2px;
      }

      .cls-2 {
        fill: #fff;
        fill-rule: evenodd;
      }
    </style>
  </defs>
  <g>
    <circle cx="34.344" cy="34.328" r="33.344" class="cls-1"/>
    <path d="M33.343,21.903 C33.788,21.903 34.149,22.264 34.149,22.708 L34.149,43.639 C34.149,44.084 33.788,44.444 33.343,44.444 C32.899,44.444 32.538,44.084 32.538,43.639 L32.538,22.708 C32.538,22.264 32.899,21.903 33.343,21.903 Z" class="cls-2"/>
    <path d="M44.777,33.335 C44.777,33.779 44.416,34.140 43.971,34.140 L23.037,34.140 C22.593,34.140 22.232,33.779 22.232,33.335 C22.232,32.890 22.593,32.530 23.037,32.530 L43.971,32.530 C44.416,32.530 44.777,32.890 44.777,33.335 Z" class="cls-2"/>
  </g>
</svg>
