<svg width="800" height="600" xmlns="http://www.w3.org/2000/svg">
 <!-- Created with Method Draw - http://github.com/duopixel/Method-Draw/ -->
 <g>
  <title>background</title>
  <rect fill="none" id="canvas_background" height="602" width="802" y="-1" x="-1"/>
  <g display="none" id="canvasGrid">
   <rect fill="url(#gridpattern)" stroke-width="0" y="0" x="0" height="100%" width="100%" id="svg_1"/>
  </g>
 </g>
 <g>
  <title>Layer 1</title>
  <defs>
   <style>.cls-1 {
        fill: #050d2c;
        opacity: 0.9;
      }

      .cls-1, .cls-2 {
        fill-rule: evenodd;
      }

      .cls-2 {
        fill: #f61f1f;
      }</style>
  </defs>
  <g stroke="null" id="svg_7">
   <g stroke="null" transform="matrix(12.090084128642282,0,0,12.436127883652974,2182.483639020868,2215.830098207355) " id="svg_4">
    <path stroke="null" id="svg_5" class="cls-1" d="m-147.43302,-175.49477c9.249,0 16.747,7.497 16.747,16.745c0,9.247 -7.498,16.744 -16.747,16.744c-9.25,0 -16.748,-7.497 -16.748,-16.744c0,-9.248 7.498,-16.745 16.748,-16.745z"/>
    <path stroke="null" id="svg_6" class="cls-2" d="m-136.72202,-142.74577c-0.101,0.067 -0.216,0.1 -0.33,0.1c-0.192,0 -0.381,-0.093 -0.495,-0.264c-0.183,-0.273 -0.109,-0.643 0.164,-0.825c5.056,-3.37 8.074,-8.999 8.074,-15.057c0,-9.977 -8.13,-18.094 -18.124,-18.094c-9.994,0 -18.125,8.117 -18.125,18.094c0,6.058 3.019,11.687 8.075,15.057c0.273,0.182 0.347,0.552 0.164,0.825c-0.183,0.272 -0.552,0.346 -0.825,0.164c-5.388,-3.592 -8.605,-9.59 -8.605,-16.046c0,-10.632 8.665,-19.283 19.316,-19.283c10.65,0 19.315,8.651 19.315,19.283c0,6.456 -3.217,12.454 -8.604,16.046zm-5.99,-21.165l-9.121,0c-1.355,0 -2.467,1.031 -2.601,2.353l-0.195,3.07l-1.499,0.914l0.004,-10.493c0,-0.897 0.723,-1.625 1.619,-1.625l14.465,0c0.894,0 1.62,0.728 1.62,1.625l0.003,10.493l-1.498,-0.914l-0.197,-3.07c-0.134,-1.322 -1.246,-2.353 -2.6,-2.353zm-10.919,2.469c0.076,-0.927 0.852,-1.656 1.798,-1.656l9.121,0c0.945,0 1.722,0.729 1.797,1.656l0.227,3.43l2.273,1.374l-0.005,5.784l-1.014,0l0.002,1.893c0,0.814 -0.658,1.474 -1.469,1.474c-0.812,0 -1.47,-0.66 -1.47,-1.474l0.002,-1.893l-9.806,0l0.001,1.893c0,0.814 -0.657,1.474 -1.47,1.474c-0.812,0 -1.469,-0.66 -1.469,-1.474l0.001,-1.893l-1.014,0l-0.004,-5.784l2.272,-1.374l0.227,-3.43zm12.767,8.035c0.68,0 1.232,-0.552 1.232,-1.234c0,-0.682 -0.552,-1.235 -1.232,-1.235c-0.68,0 -1.231,0.553 -1.231,1.235c0,0.682 0.551,1.234 1.231,1.234zm-10.466,0.617l8.099,0l0,-3.117c0,-0.308 -0.249,-0.557 -0.555,-0.557l-6.986,0c-0.309,0 -0.558,0.249 -0.558,0.557l0,3.117zm9.772,-5.258l-0.221,-3.322c-0.04,-0.482 -0.442,-0.86 -0.933,-0.86l-9.121,0c-0.491,0 -0.893,0.378 -0.933,0.86l-0.221,3.322l11.429,0zm-13.354,3.407c0,0.682 0.551,1.234 1.231,1.234c0.679,0 1.231,-0.552 1.231,-1.234c0,-0.682 -0.552,-1.235 -1.231,-1.235c-0.68,0 -1.231,0.553 -1.231,1.235z"/>
   </g>
  </g>
  <g stroke="null" id="svg_28">
   <polygon stroke="null" id="svg_12" fill="#f0c300" points="504.19769287109375,435.5882263183594 435.18072509765625,419.896240234375 400.0003967285156,354.0311279296875 364.81951904296875,419.896240234375 295.80230712890625,435.5882263183594 343.0763854980469,491.9874572753906 335.6022033691406,567.5509643554688 400.0003967285156,536.5421142578125 464.39752197265625,567.5509643554688 456.9230651855469,491.9874572753906 "/>
   <g stroke="null" transform="matrix(0.43217077767573503,0,0,0.46558945047888906,1170.3265804289583,2283.0299105924223) " id="svg_13"/>
   <g stroke="null" transform="matrix(0.43217077767573503,0,0,0.46558945047888906,1170.3265804289583,2283.0299105924223) " id="svg_14"/>
   <g stroke="null" transform="matrix(0.43217077767573503,0,0,0.46558945047888906,1170.3265804289583,2283.0299105924223) " id="svg_15"/>
   <g stroke="null" transform="matrix(0.43217077767573503,0,0,0.46558945047888906,1170.3265804289583,2283.0299105924223) " id="svg_16"/>
   <g stroke="null" transform="matrix(0.43217077767573503,0,0,0.46558945047888906,1170.3265804289583,2283.0299105924223) " id="svg_17"/>
   <g stroke="null" transform="matrix(0.43217077767573503,0,0,0.46558945047888906,1170.3265804289583,2283.0299105924223) " id="svg_18"/>
   <g stroke="null" transform="matrix(0.43217077767573503,0,0,0.46558945047888906,1170.3265804289583,2283.0299105924223) " id="svg_19"/>
   <g stroke="null" transform="matrix(0.43217077767573503,0,0,0.46558945047888906,1170.3265804289583,2283.0299105924223) " id="svg_20"/>
   <g stroke="null" transform="matrix(0.43217077767573503,0,0,0.46558945047888906,1170.3265804289583,2283.0299105924223) " id="svg_21"/>
   <g stroke="null" transform="matrix(0.43217077767573503,0,0,0.46558945047888906,1170.3265804289583,2283.0299105924223) " id="svg_22"/>
   <g stroke="null" transform="matrix(0.43217077767573503,0,0,0.46558945047888906,1170.3265804289583,2283.0299105924223) " id="svg_23"/>
   <g stroke="null" transform="matrix(0.43217077767573503,0,0,0.46558945047888906,1170.3265804289583,2283.0299105924223) " id="svg_24"/>
   <g stroke="null" transform="matrix(0.43217077767573503,0,0,0.46558945047888906,1170.3265804289583,2283.0299105924223) " id="svg_25"/>
   <g stroke="null" transform="matrix(0.43217077767573503,0,0,0.46558945047888906,1170.3265804289583,2283.0299105924223) " id="svg_26"/>
   <g stroke="null" transform="matrix(0.43217077767573503,0,0,0.46558945047888906,1170.3265804289583,2283.0299105924223) " id="svg_27"/>
  </g>
  <text stroke="#000" transform="matrix(1.3445012683745305,0,0,1.8284346430491079,309.8763848026921,1049.8216984929074) " xml:space="preserve" text-anchor="start" font-family="Helvetica, Arial, sans-serif" font-size="24" id="svg_29" y="-308.123962" x="50.36697" stroke-width="0" fill="#000000">3.5</text>
 </g>
</svg>