<svg xmlns="http://www.w3.org/2000/svg" xmlns:xlink="http://www.w3.org/1999/xlink" preserveAspectRatio="xMidYMid" width="38.625" height="36.063" viewBox="0 0 38.625 36.063">
  <defs>
    <style>
      .cls-1 {
        fill: #050d2c;
        opacity: 0.9;
      }

      .cls-1, .cls-2 {
        fill-rule: evenodd;
      }

      .cls-2 {
        fill: #f61f1f;
      }
    </style>
  </defs>
  <g>
    <path d="M19.324,2.572 C28.573,2.572 36.071,10.069 36.071,19.317 C36.071,28.564 28.573,36.061 19.324,36.061 C10.074,36.061 2.576,28.564 2.576,19.317 C2.576,10.069 10.074,2.572 19.324,2.572 Z" class="cls-1"/>
    <path d="M30.035,35.321 C29.934,35.388 29.819,35.421 29.705,35.421 C29.513,35.421 29.324,35.328 29.210,35.157 C29.027,34.884 29.101,34.514 29.374,34.332 C34.430,30.962 37.448,25.333 37.448,19.275 C37.448,9.298 29.318,1.181 19.324,1.181 C9.330,1.181 1.199,9.298 1.199,19.275 C1.199,25.333 4.218,30.962 9.274,34.332 C9.547,34.514 9.621,34.884 9.438,35.157 C9.255,35.429 8.886,35.503 8.613,35.321 C3.225,31.729 0.008,25.731 0.008,19.275 C0.008,8.643 8.673,-0.008 19.324,-0.008 C29.974,-0.008 38.639,8.643 38.639,19.275 C38.639,25.731 35.422,31.729 30.035,35.321 ZM24.045,14.156 L14.924,14.156 C13.569,14.156 12.457,15.187 12.323,16.509 L12.128,19.579 L10.629,20.493 L10.633,10.000 C10.633,9.103 11.356,8.375 12.252,8.375 L26.717,8.375 C27.611,8.375 28.337,9.103 28.337,10.000 L28.340,20.493 L26.842,19.579 L26.645,16.509 C26.511,15.187 25.399,14.156 24.045,14.156 ZM13.126,16.625 C13.202,15.698 13.978,14.969 14.924,14.969 L24.045,14.969 C24.990,14.969 25.767,15.698 25.842,16.625 L26.069,20.055 L28.342,21.429 L28.337,27.213 L27.323,27.213 L27.325,29.106 C27.325,29.920 26.667,30.580 25.856,30.580 C25.044,30.580 24.386,29.920 24.386,29.106 L24.388,27.213 L14.582,27.213 L14.583,29.106 C14.583,29.920 13.926,30.580 13.113,30.580 C12.301,30.580 11.644,29.920 11.644,29.106 L11.645,27.213 L10.631,27.213 L10.627,21.429 L12.899,20.055 L13.126,16.625 ZM25.893,24.660 C26.573,24.660 27.125,24.108 27.125,23.426 C27.125,22.744 26.573,22.191 25.893,22.191 C25.213,22.191 24.662,22.744 24.662,23.426 C24.662,24.108 25.213,24.660 25.893,24.660 ZM15.427,25.277 L23.526,25.277 L23.526,22.160 C23.526,21.852 23.277,21.603 22.971,21.603 L15.985,21.603 C15.676,21.603 15.427,21.852 15.427,22.160 L15.427,25.277 ZM25.199,20.019 L24.978,16.697 C24.938,16.215 24.536,15.837 24.045,15.837 L14.924,15.837 C14.433,15.837 14.031,16.215 13.991,16.697 L13.770,20.019 L25.199,20.019 ZM11.845,23.426 C11.845,24.108 12.396,24.660 13.076,24.660 C13.755,24.660 14.307,24.108 14.307,23.426 C14.307,22.744 13.755,22.191 13.076,22.191 C12.396,22.191 11.845,22.744 11.845,23.426 Z" class="cls-2"/>
  </g>
</svg>
