<svg xmlns="http://www.w3.org/2000/svg" xmlns:xlink="http://www.w3.org/1999/xlink" preserveAspectRatio="xMidYMid" width="42" height="40" viewBox="0 0 42 40">
  <defs>
    <style>
      .cls-1 {
        fill: #050d2c;
        opacity: 0.9;
      }

      .cls-2, .cls-3 {
        fill: #fb890f;
        fill-rule: evenodd;
      }

      .cls-2 {
        filter: url(#outer-glow-1);
      }
    </style>

    <filter id="outer-glow-1" filterUnits="userSpaceOnUse">
      <feGaussianBlur stdDeviation="0.667" in="SourceAlpha"/>
      <feComposite/>
      <feComposite/>
      <feComposite result="outerGlowBlur"/>
      <feFlood flood-color="#fb890f" flood-opacity="0.7"/>
      <feComposite operator="in" in2="outerGlowBlur"/>
      <feBlend in2="SourceGraphic" result="outerGlow"/>
      <feComposite in="SourceGraphic" result="shadowed"/>
    </filter>
  </defs>
  <g>
    <circle cx="20.656" cy="21.25" r="16.75" class="cls-1"/>
    <path d="M32.729,39.650 C32.537,39.650 32.348,39.557 32.234,39.386 C32.051,39.113 32.125,38.743 32.398,38.562 C37.454,35.191 40.472,29.562 40.472,23.504 C40.472,13.527 32.342,5.411 22.348,5.411 C12.354,5.411 4.223,13.527 4.223,23.504 C4.223,29.562 7.242,35.191 12.298,38.562 C12.571,38.743 12.645,39.113 12.462,39.386 C12.279,39.658 11.910,39.732 11.637,39.550 C6.249,35.958 3.033,29.960 3.033,23.504 C3.033,12.872 11.697,4.221 22.348,4.221 C32.998,4.221 41.663,12.872 41.663,23.504 C41.663,29.960 38.446,35.958 33.059,39.550 C32.958,39.617 32.843,39.650 32.729,39.650 Z" class="cls-2"/>
    <path d="M30.422,30.111 C30.152,30.379 28.705,30.915 26.994,31.463 C27.195,30.831 27.305,30.161 27.305,29.465 C27.305,25.815 24.324,22.846 20.660,22.846 C16.996,22.846 14.015,25.815 14.015,29.465 C14.015,30.161 14.126,30.831 14.326,31.463 C12.615,30.915 11.168,30.379 10.899,30.111 C10.218,29.432 11.239,21.292 11.580,20.274 C12.024,18.947 18.050,17.560 18.050,17.560 C18.050,19.596 19.042,20.580 20.660,20.744 C22.279,20.580 23.270,19.596 23.270,17.560 C23.270,17.560 29.297,18.947 29.741,20.274 C30.081,21.292 31.103,29.432 30.422,30.111 ZM20.660,16.544 C18.215,16.544 16.233,14.569 16.233,12.134 C16.233,9.698 18.215,7.724 20.660,7.724 C23.105,7.724 25.087,9.698 25.087,12.134 C25.087,14.569 23.105,16.544 20.660,16.544 ZM20.660,23.864 C23.761,23.864 26.284,26.376 26.284,29.465 C26.284,30.319 26.084,31.127 25.739,31.852 C23.687,32.473 21.572,33.031 20.775,33.142 C20.775,33.148 20.775,33.157 20.775,33.163 C20.743,33.163 20.705,33.161 20.660,33.157 C20.616,33.161 20.577,33.163 20.546,33.163 C20.546,33.157 20.546,33.148 20.546,33.142 C19.748,33.031 17.634,32.473 15.581,31.852 C15.236,31.127 15.037,30.319 15.037,29.465 C15.037,26.376 17.560,23.864 20.660,23.864 Z" class="cls-3"/>
  </g>
</svg>
